<svg xmlns="http://www.w3.org/2000/svg" viewBox="0 0 560 60" width="560" height="60">
  <rect x="0" y="0" width="560" height="14" rx="7" fill="#161b22"/>
  <rect x="0" y="0" width="134" height="14" rx="7" fill="#00B4AB"><animate attributeName="width" from="0" to="134" dur="0.8s" begin="0s" fill="freeze"/></rect>
  <rect x="134" y="0" width="112" height="14" fill="#00ADD8"><animate attributeName="width" from="0" to="112" dur="0.8s" begin="0.1s" fill="freeze"/></rect>
  <rect x="246" y="0" width="95" height="14" fill="#3178C6"><animate attributeName="width" from="0" to="95" dur="0.8s" begin="0.2s" fill="freeze"/></rect>
  <rect x="341" y="0" width="78" height="14" fill="#7F52FF"><animate attributeName="width" from="0" to="78" dur="0.8s" begin="0.3s" fill="freeze"/></rect>
  <rect x="419" y="0" width="62" height="14" fill="#F05138"><animate attributeName="width" from="0" to="62" dur="0.8s" begin="0.4s" fill="freeze"/></rect>
  <rect x="481" y="0" width="50" height="14" fill="#00599C"><animate attributeName="width" from="0" to="50" dur="0.8s" begin="0.5s" fill="freeze"/></rect>
  <rect x="531" y="0" width="29" height="14" rx="7" fill="#3776AB"><animate attributeName="width" from="0" to="29" dur="0.8s" begin="0.6s" fill="freeze"/></rect>

  <circle cx="8" cy="38" r="4" fill="#00B4AB"/><text x="17" y="42" font-family="-apple-system,Helvetica,Arial,sans-serif" font-size="11" fill="#e6e8eb" font-weight="600">Dart</text><text x="47" y="42" font-family="-apple-system,Helvetica,Arial,sans-serif" font-size="11" fill="#6e7681">24%</text>
  <circle cx="90" cy="38" r="4" fill="#00ADD8"/><text x="99" y="42" font-family="-apple-system,Helvetica,Arial,sans-serif" font-size="11" fill="#e6e8eb" font-weight="600">Go</text><text x="118" y="42" font-family="-apple-system,Helvetica,Arial,sans-serif" font-size="11" fill="#6e7681">20%</text>
  <circle cx="160" cy="38" r="4" fill="#3178C6"/><text x="169" y="42" font-family="-apple-system,Helvetica,Arial,sans-serif" font-size="11" fill="#e6e8eb" font-weight="600">TypeScript</text><text x="240" y="42" font-family="-apple-system,Helvetica,Arial,sans-serif" font-size="11" fill="#6e7681">17%</text>
  <circle cx="290" cy="38" r="4" fill="#7F52FF"/><text x="299" y="42" font-family="-apple-system,Helvetica,Arial,sans-serif" font-size="11" fill="#e6e8eb" font-weight="600">Kotlin</text><text x="345" y="42" font-family="-apple-system,Helvetica,Arial,sans-serif" font-size="11" fill="#6e7681">14%</text>
  <circle cx="390" cy="38" r="4" fill="#F05138"/><text x="399" y="42" font-family="-apple-system,Helvetica,Arial,sans-serif" font-size="11" fill="#e6e8eb" font-weight="600">Swift</text><text x="435" y="42" font-family="-apple-system,Helvetica,Arial,sans-serif" font-size="11" fill="#6e7681">11%</text>
  <circle cx="8" cy="56" r="4" fill="#00599C"/><text x="17" y="60" font-family="-apple-system,Helvetica,Arial,sans-serif" font-size="11" fill="#e6e8eb" font-weight="600">C++</text><text x="45" y="60" font-family="-apple-system,Helvetica,Arial,sans-serif" font-size="11" fill="#6e7681">9%</text>
  <circle cx="90" cy="56" r="4" fill="#3776AB"/><text x="99" y="60" font-family="-apple-system,Helvetica,Arial,sans-serif" font-size="11" fill="#e6e8eb" font-weight="600">Python</text><text x="145" y="60" font-family="-apple-system,Helvetica,Arial,sans-serif" font-size="11" fill="#6e7681">5%</text>
</svg>
