<svg xmlns="http://www.w3.org/2000/svg" viewBox="0 0 560 88" width="560" height="88">
  <rect x="0" y="0" width="560" height="16" rx="8" fill="#161b22"/>
  <rect x="0" y="0" width="134" height="16" rx="8" fill="#00B4AB"><animate attributeName="width" from="0" to="134" dur="0.8s" begin="0s" fill="freeze"/></rect>
  <rect x="134" y="0" width="112" height="16" fill="#00ADD8"><animate attributeName="width" from="0" to="112" dur="0.8s" begin="0.1s" fill="freeze"/></rect>
  <rect x="246" y="0" width="95" height="16" fill="#3178C6"><animate attributeName="width" from="0" to="95" dur="0.8s" begin="0.2s" fill="freeze"/></rect>
  <rect x="341" y="0" width="78" height="16" fill="#7F52FF"><animate attributeName="width" from="0" to="78" dur="0.8s" begin="0.3s" fill="freeze"/></rect>
  <rect x="419" y="0" width="62" height="16" fill="#F05138"><animate attributeName="width" from="0" to="62" dur="0.8s" begin="0.4s" fill="freeze"/></rect>
  <rect x="481" y="0" width="50" height="16" fill="#00599C"><animate attributeName="width" from="0" to="50" dur="0.8s" begin="0.5s" fill="freeze"/></rect>
  <rect x="531" y="0" width="29" height="16" rx="8" fill="#3776AB"><animate attributeName="width" from="0" to="29" dur="0.8s" begin="0.6s" fill="freeze"/></rect>

  <g font-family="-apple-system,Helvetica,Arial,sans-serif" font-size="13" dominant-baseline="central">
    <circle cx="10" cy="42" r="5" fill="#00B4AB" dominant-baseline="central"/><text x="21" y="42" fill="#e6e8eb" font-weight="600">Dart</text><text x="56" y="42" fill="#6e7681">24%</text>
    <circle cx="100" cy="42" r="5" fill="#00ADD8" dominant-baseline="central"/><text x="111" y="42" fill="#e6e8eb" font-weight="600">Go</text><text x="133" y="42" fill="#6e7681">20%</text>
    <circle cx="178" cy="42" r="5" fill="#3178C6" dominant-baseline="central"/><text x="189" y="42" fill="#e6e8eb" font-weight="600">TypeScript</text><text x="266" y="42" fill="#6e7681">17%</text>
    <circle cx="320" cy="42" r="5" fill="#7F52FF" dominant-baseline="central"/><text x="331" y="42" fill="#e6e8eb" font-weight="600">Kotlin</text><text x="381" y="42" fill="#6e7681">14%</text>
    <circle cx="430" cy="42" r="5" fill="#F05138" dominant-baseline="central"/><text x="441" y="42" fill="#e6e8eb" font-weight="600">Swift</text><text x="480" y="42" fill="#6e7681">11%</text>

    <circle cx="10" cy="72" r="5" fill="#00599C" dominant-baseline="central"/><text x="21" y="72" fill="#e6e8eb" font-weight="600">C++</text><text x="58" y="72" fill="#6e7681">9%</text>
    <circle cx="100" cy="72" r="5" fill="#3776AB" dominant-baseline="central"/><text x="111" y="72" fill="#e6e8eb" font-weight="600">Python</text><text x="163" y="72" fill="#6e7681">5%</text>
  </g>
</svg>
